<?xml version="1.0" encoding="UTF-8"?>
<svg xmlns="http://www.w3.org/2000/svg" xmlns:xlink="http://www.w3.org/1999/xlink" viewBox="0 0 588.39 76.25">
  <defs>
    <style>
      .cls-1 {
        fill: #0889e5;
      }

      .cls-2 {
        fill: #fff;
      }

      .cls-3 {
        fill: #83bedc;
        font-family: Mont-Regular, Mont;
        font-size: 66.25px;
      }

      .cls-4 {
        fill: url(#_Безымянный_градиент_112);
        mix-blend-mode: luminosity;
        opacity: .25;
      }

      .cls-5 {
        letter-spacing: -.01em;
      }

      .cls-6 {
        letter-spacing: -.01em;
      }

      .cls-7 {
        filter: url(#drop-shadow-4);
        stroke: #fff;
        stroke-width: .47px;
      }

      .cls-7, .cls-8, .cls-9 {
        fill: none;
      }

      .cls-7, .cls-10 {
        mix-blend-mode: overlay;
      }

      .cls-7, .cls-9 {
        stroke-miterlimit: 10;
      }

      .cls-11 {
        isolation: isolate;
      }

      .cls-12 {
        letter-spacing: -.02em;
      }

      .cls-13 {
        fill: url(#_Безымянный_градиент_113);
        filter: url(#drop-shadow-3);
      }

      .cls-14 {
        letter-spacing: 0em;
      }

      .cls-15 {
        clip-path: url(#clippath);
      }

      .cls-16 {
        fill: url(#_Безымянный_градиент_116);
        filter: url(#drop-shadow-1);
      }

      .cls-17 {
        letter-spacing: -.02em;
      }

      .cls-18 {
        fill: url(#_Безымянный_градиент_115);
        filter: url(#drop-shadow-2);
      }

      .cls-19 {
        letter-spacing: 0em;
      }

      .cls-20 {
        fill: url(#_Безымянный_градиент_117);
      }

      .cls-9 {
        stroke: #83bedc;
        stroke-linecap: round;
        stroke-width: 3.11px;
      }
    </style>
    <linearGradient id="_Безымянный_градиент_117" data-name="Безымянный градиент 117" x1="43.9" y1="2.04" x2="43.9" y2="63.42" gradientUnits="userSpaceOnUse">
      <stop offset="0" stop-color="#0094f9"/>
      <stop offset="1" stop-color="#0072b2"/>
    </linearGradient>
    <clipPath id="clippath">
      <path class="cls-8" d="M70.27,63.41h0c-.3,.03-.6,.04-.91,.04h-.75c.17,0,.33,0,.49-.02-2.22-.02-4.34-.39-6.34-1.08h0s-.07-.03-.11-.04c-12.22-3.79-25.24-3.79-37.47,0-.03,.01-.07,.02-.11,.04h0c-1.99,.69-4.12,1.07-6.34,1.08,.16,.01,.32,.02,.49,.02h-.76c-.31,0-.61-.01-.91-.04-8.5-.68-13.28-10.86-8.22-18.31l15.77-23.25,9.81-14.46c4.39-6.48,13.62-6.48,18.02,0l9.81,14.46,15.77,23.25c5.05,7.44,.28,17.63-8.22,18.31Z"/>
    </clipPath>
    <linearGradient id="_Безымянный_градиент_116" data-name="Безымянный градиент 116" x1="43.91" y1="16.05" x2="43.91" y2="64.49" gradientUnits="userSpaceOnUse">
      <stop offset="0" stop-color="#30b3fc"/>
      <stop offset="1" stop-color="#0477b7"/>
    </linearGradient>
    <filter id="drop-shadow-1" filterUnits="userSpaceOnUse">
      <feOffset dx="0" dy="0"/>
      <feGaussianBlur result="blur" stdDeviation="3.11"/>
      <feFlood flood-color="#000" flood-opacity=".4"/>
      <feComposite in2="blur" operator="in"/>
      <feComposite in="SourceGraphic"/>
    </filter>
    <linearGradient id="_Безымянный_градиент_115" data-name="Безымянный градиент 115" x1="43.9" y1="29.67" x2="43.9" y2="60.74" gradientUnits="userSpaceOnUse">
      <stop offset="0" stop-color="#83d9ff"/>
      <stop offset=".15" stop-color="#7ed6fe"/>
      <stop offset=".33" stop-color="#6fcefc"/>
      <stop offset=".53" stop-color="#58c0f9"/>
      <stop offset=".73" stop-color="#37adf5"/>
      <stop offset=".94" stop-color="#0e96f0"/>
      <stop offset="1" stop-color="#008eef"/>
    </linearGradient>
    <filter id="drop-shadow-2" filterUnits="userSpaceOnUse">
      <feOffset dx="0" dy="0"/>
      <feGaussianBlur result="blur-2" stdDeviation="3.11"/>
      <feFlood flood-color="#000" flood-opacity=".2"/>
      <feComposite in2="blur-2" operator="in"/>
      <feComposite in="SourceGraphic"/>
    </filter>
    <linearGradient id="_Безымянный_градиент_113" data-name="Безымянный градиент 113" x1="43.9" y1="42.86" x2="43.9" y2="63.01" gradientUnits="userSpaceOnUse">
      <stop offset="0" stop-color="#c5eaff"/>
      <stop offset="1" stop-color="#71c5ff"/>
    </linearGradient>
    <filter id="drop-shadow-3" filterUnits="userSpaceOnUse">
      <feOffset dx="0" dy="0"/>
      <feGaussianBlur result="blur-3" stdDeviation="3.11"/>
      <feFlood flood-color="#000" flood-opacity=".25"/>
      <feComposite in2="blur-3" operator="in"/>
      <feComposite in="SourceGraphic"/>
    </filter>
    <filter id="drop-shadow-4" filterUnits="userSpaceOnUse">
      <feOffset dx="0" dy="0"/>
      <feGaussianBlur result="blur-4" stdDeviation="3.11"/>
      <feFlood flood-color="#000" flood-opacity=".25"/>
      <feComposite in2="blur-4" operator="in"/>
      <feComposite in="SourceGraphic"/>
    </filter>
    <linearGradient id="_Безымянный_градиент_112" data-name="Безымянный градиент 112" x1="7.16" y1="32.99" x2="80.75" y2="32.99" gradientUnits="userSpaceOnUse">
      <stop offset="0" stop-color="#000"/>
      <stop offset=".5" stop-color="#fff" stop-opacity=".75"/>
      <stop offset="1" stop-color="#000"/>
    </linearGradient>
  </defs>
  <g class="cls-11">
    <g id="_Слой_2" data-name="Слой 2">
      <g id="_Слой_1-2" data-name="Слой 1">
        <path class="cls-20" d="M70.27,63.41h0c-.3,.03-.6,.04-.91,.04h-.75c.17,0,.33,0,.49-.02-2.22-.02-4.34-.39-6.34-1.08h0s-.07-.03-.11-.04c-12.22-3.79-25.24-3.79-37.47,0-.03,.01-.07,.02-.11,.04h0c-1.99,.69-4.12,1.07-6.34,1.08,.16,.01,.32,.02,.49,.02h-.76c-.31,0-.61-.01-.91-.04-8.5-.68-13.28-10.86-8.22-18.31l15.77-23.25,9.81-14.46c4.39-6.48,13.62-6.48,18.02,0l9.81,14.46,15.77,23.25c5.05,7.44,.28,17.63-8.22,18.31Z"/>
        <path class="cls-1" d="M299.33,42.9l-.57-.21c-1.24-.45-2.64,.06-3.29,1.25-2.16,3.96-6.24,6.63-10.92,6.63-7.4,0-13.31-6.66-12.47-14.54,.67-6.31,5.49-11.11,11.58-11.54,3.9-.28,7.46,1.3,9.92,3.97l-12.3,7.09c-1.34,.77-1.82,2.53-1.08,3.92l.45,.84c.74,1.39,2.42,1.89,3.76,1.12l4.22-2.43,8.09-4.67,3.57-2.06c1.32-.76,1.82-2.48,1.12-3.88l-.5-.93c-.46-.82-.98-1.6-1.55-2.33-3.64-4.71-9.32-7.65-15.64-7.37-9.8,.43-18.14,9.49-18.17,19.7-.03,10.95,8.49,19.83,19,19.83,7.01,0,13.14-3.96,16.43-9.85,.95-1.71,.14-3.89-1.65-4.54"/>
        <path class="cls-1" d="M238.9,39.48l.45,.84c.74,1.39,2.43,1.89,3.76,1.12l4.21-2.43,8.09-4.67,3.59-2.07c1.31-.76,1.81-2.46,1.12-3.85v-.02s-.51-.93-.51-.93c-.47-.82-.99-1.6-1.55-2.33-3.65-4.71-9.32-7.65-15.65-7.37-9.8,.43-18.14,9.49-18.17,19.7-.03,10.95,8.49,19.83,19,19.83,7.02,0,13.15-3.96,16.44-9.85,.95-1.71,.14-3.89-1.66-4.54l-.57-.21c-1.24-.45-2.64,.06-3.29,1.25-2.15,3.96-6.23,6.63-10.92,6.63-7.4,0-13.3-6.66-12.47-14.54,.67-6.31,5.5-11.11,11.59-11.54,3.9-.28,7.45,1.3,9.92,3.97l-12.31,7.09c-1.33,.77-1.82,2.53-1.08,3.92"/>
        <path class="cls-1" d="M215.46,18.74h-.05c-1.33,0-2.5,.9-2.9,2.22-2.79,9.22-7.36,24.3-8,26.21-.95,2.78-3.02,2.6-3.02,2.6,0,0-2.07,.18-3.02-2.6-.66-1.95-5.29-17.26-7.98-26.21-.4-1.32-1.57-2.22-2.9-2.22h-.08c-2.37,0-4.06,2.43-3.29,4.77,2.47,7.65,5.18,15.94,6.59,19.97,3.02,8.61,4.31,12.83,10.69,12.83s7.67-4.22,10.69-12.83c1.41-4.03,4.12-12.32,6.59-19.97,.76-2.35-.92-4.77-3.3-4.77"/>
        <path class="cls-1" d="M177.79,42.9l-.57-.21c-1.28-.46-2.67,.11-3.34,1.33-2.31,4.18-6.77,6.89-11.8,6.52-6.19-.46-11.18-5.69-11.6-12.13-.49-7.62,5.3-13.96,12.52-13.96,2.92,0,5.61,1.04,7.74,2.78,.87,.71,2.06,.79,3.02,.23l.51-.29c1.91-1.1,2.11-3.88,.39-5.28-3.22-2.6-7.26-4.15-11.65-4.15-10.94,0-19.72,9.63-18.95,21.18,.65,9.75,7.94,17.47,17.3,18.3,7.69,.68,14.54-3.42,18.09-9.77,.95-1.71,.14-3.9-1.64-4.55"/>
        <path class="cls-1" d="M118.2,17.75c-10.5,0-19,8.86-19,19.77s8.51,19.78,19,19.78c4.81,0,9.2-1.86,12.54-4.92v2.05c0,1.59,1.24,2.87,2.77,2.87h.93c1.53,0,2.77-1.29,2.77-2.87v-16.9c0-10.92-8.51-19.77-19-19.77m0,32.83c-6.93,0-12.55-5.85-12.55-13.06s5.62-13.05,12.55-13.05,12.54,5.85,12.54,13.05-5.61,13.06-12.54,13.06"/>
        <g>
          <g class="cls-15">
            <path class="cls-20" d="M70.27,63.41h0c-.3,.03-.6,.04-.91,.04h-.75c.17,0,.33,0,.49-.02-2.22-.02-4.34-.39-6.34-1.08h0s-.07-.03-.11-.04c-12.22-3.79-25.24-3.79-37.47,0-.03,.01-.07,.02-.11,.04h0c-1.99,.69-4.12,1.07-6.34,1.08,.16,.01,.32,.02,.49,.02h-.76c-.31,0-.61-.01-.91-.04-8.5-.68-13.28-10.86-8.22-18.31l15.77-23.25,9.81-14.46c4.39-6.48,13.62-6.48,18.02,0l9.81,14.46,15.77,23.25c5.05,7.44,.28,17.63-8.22,18.31Z"/>
            <g class="cls-10">
              <path class="cls-2" d="M15.73,35.64l12.57-18.53,6.29-9.27c1.03-1.55,2.34-2.94,3.97-3.86,4.95-3.02,11.73-1.05,14.66,3.86,4.01,5.91,14.72,21.7,18.86,27.8-3.26-4.54-9.68-13.74-12.83-18.36,0,0-6.35-9.22-6.35-9.22-1.03-1.52-2.29-2.83-3.87-3.71-4.79-2.83-11.26-1.01-14.12,3.71,0,0-6.35,9.22-6.35,9.22-3.13,4.61-9.58,13.83-12.83,18.36h0Z"/>
            </g>
            <path class="cls-16" d="M69.86,63.43c-.21,.02-.42,.03-.63,.03h-.62c.17,0,.33,0,.49-.02-2.22-.02-4.34-.39-6.34-1.08h0s-.07-.03-.11-.04c-12.22-3.79-25.24-3.79-37.47,0-.03,.01-.07,.02-.11,.04h0c-1.99,.69-4.12,1.07-6.34,1.08,.16,.01,.32,.02,.49,.02h-.62c-.21,0-.42,0-.63-.03-7.72-.5-11.5-10.3-5.99-16.22L31.84,25.81l5.9-6.34c3.37-3.64,8.97-3.64,12.34,0l5.9,6.34,19.88,21.4c5.51,5.93,1.72,15.72-5.99,16.22Z"/>
            <g class="cls-10">
              <path class="cls-2" d="M19.27,39.34c3.87-4.17,13.65-14.7,17.39-18.72,2.62-3.5,7.38-5.09,11.32-2.81,1.26,.69,2.21,1.77,3.17,2.81l5.8,6.24,11.59,12.48c-3-3.02-8.92-9.16-11.82-12.27,0,0-5.86-6.18-5.86-6.18-.99-1.05-1.9-2.06-3.09-2.7-3.76-2.1-8.29-.64-10.83,2.7-5.22,5.51-12.32,13.08-17.68,18.45h0Z"/>
            </g>
            <path class="cls-18" d="M70.55,63.19s-.03,.01-.05,.02c-.44,.12-.91,.2-1.41,.23-2.22-.02-4.34-.39-6.34-1.08h0s-.07-.03-.11-.04c-12.22-3.79-25.24-3.79-37.47,0-.03,.01-.07,.02-.11,.04h0c-1.99,.69-4.12,1.07-6.34,1.08-.49-.03-.96-.11-1.41-.23-.01,0-.03-.01-.05-.02-5.52-1.53-7.35-9.48-2.24-13.29l22.26-16.61,2.06-1.53c2.73-2.05,6.41-2.05,9.15,0l2.06,1.53,22.25,16.61c5.11,3.81,3.28,11.76-2.24,13.29Z"/>
            <g class="cls-10">
              <path class="cls-2" d="M18.84,47.05c4.09-3.05,14.38-10.73,18.32-13.67,4.88-4.2,8.61-4.2,13.5,0,0,0,6.11,4.56,6.11,4.56l12.21,9.12c-3.13-2.17-9.35-6.59-12.42-8.83-2.56-1.83-5.13-3.77-7.68-5.63-2.81-2.5-7.11-2.5-9.92,0-6.23,4.63-13.69,10.01-20.1,14.46h0Z"/>
            </g>
            <path class="cls-13" d="M70.55,63.19s-.03,.01-.05,.02c-.35,.12-.74,.2-1.15,.23-.13,.01-.26,.02-.4,.02h-.35c.17,0,.33,0,.49-.02-2.22-.02-4.34-.39-6.34-1.08h0s-.07-.03-.11-.04c-12.22-3.79-25.24-3.79-37.47,0-.03,.01-.07,.02-.11,.04h0c-1.99,.69-4.12,1.07-6.34,1.08,.16,.01,.32,.02,.49,.02h-.35c-.14,0-.27,0-.4-.02-.41-.03-.8-.11-1.15-.23-.01,0-.03-.01-.05-.02-3.76-1.32-4.47-7.22-.35-9.16l21.34-10.03c.27-.12,.53-.24,.8-.34,3.13-1.24,6.59-1.23,9.72,0,.27,.1,.54,.22,.8,.34l21.34,10.03c4.12,1.93,3.41,7.84-.35,9.16Z"/>
            <path class="cls-7" d="M22.09,51.6l16.16-7.59c.27-.12,.53-.24,.8-.34,3.13-1.24,6.59-1.23,9.72,0,.27,.1,.54,.22,.8,.34l16.16,7.59"/>
          </g>
          <path class="cls-4" d="M70.27,63.41h0c-.3,.03-.6,.04-.91,.04h-.75c.17,0,.33,0,.49-.02-2.22-.02-4.34-.39-6.34-1.08h0s-.07-.03-.11-.04c-12.22-3.79-25.24-3.79-37.47,0-.03,.01-.07,.02-.11,.04h0c-1.99,.69-4.12,1.07-6.34,1.08,.16,.01,.32,.02,.49,.02h-.76c-.31,0-.61-.01-.91-.04-8.5-.68-13.28-10.86-8.22-18.31l15.77-23.25,9.81-14.46c4.39-6.48,13.62-6.48,18.02,0l9.81,14.46,15.77,23.25c5.05,7.44,.28,17.63-8.22,18.31Z"/>
        </g>
        <line class="cls-9" x1="321.58" y1="22.62" x2="321.58" y2="52.43"/>
        <text class="cls-3" transform="translate(336.16 56.31)"><tspan class="cls-5" x="0" y="0">f</tspan><tspan class="cls-12" x="24.83" y="0">i</tspan><tspan class="cls-6" x="40.51" y="0">n</tspan><tspan class="cls-17" x="82.25" y="0">a</tspan><tspan class="cls-6" x="127.26" y="0">n</tspan><tspan class="cls-19" x="169" y="0">c</tspan><tspan class="cls-14" x="209.7" y="0">e</tspan></text>
      </g>
    </g>
  </g>
</svg>