<svg width="17" height="21" viewBox="0 0 17 21" fill="none" xmlns="http://www.w3.org/2000/svg">
<path d="M8.50017 21C9.58911 21 10.4702 20.1307 10.4702 19.0563H6.53017C6.53017 20.1307 7.41123 21 8.50017 21ZM16.7068 16.3995L15.4298 15.1395V9.27907C15.4298 6.00698 13.0935 3.27209 9.98509 2.60791V1.46512C9.98509 0.654419 9.32183 0 8.50017 0C7.67851 0 7.01525 0.654419 7.01525 1.46512V2.60791C3.90681 3.27209 1.57053 6.00698 1.57053 9.27907V15.1395L0.293497 16.3995C-0.33017 17.0149 0.105407 18.0698 0.986461 18.0698H16.004C16.8949 18.0698 17.3305 17.0149 16.7068 16.3995Z" fill="#333333" fill-opacity="0.6"/>
</svg>
