<svg width="21" height="22" viewBox="0 0 21 22" fill="none" xmlns="http://www.w3.org/2000/svg">
<path fill-rule="evenodd" clip-rule="evenodd" d="M15.9108 10.4359C15.9108 14.3456 12.8409 17.4026 9.1908 17.4026C5.54073 17.4026 2.4708 14.3456 2.4708 10.4359C2.4708 6.52618 5.54073 3.46918 9.1908 3.46918C12.8409 3.46918 15.9108 6.52618 15.9108 10.4359ZM14.8989 17.8331C13.331 19.1105 11.3477 19.8734 9.1908 19.8734C4.11486 19.8734 0 15.6481 0 10.4359C0 5.2237 4.11486 0.998383 9.1908 0.998383C14.2667 0.998383 18.3816 5.2237 18.3816 10.4359C18.3816 12.5672 17.6936 14.5335 16.5331 16.1134C16.6466 16.1685 16.7533 16.2413 16.8489 16.332L20.6232 19.9132C21.1181 20.3828 21.1266 21.1529 20.6421 21.6333C20.1576 22.1137 19.3636 22.1225 18.8686 21.6528L15.0944 18.0717C15.0174 17.9987 14.9523 17.9184 14.8989 17.8331Z" fill="white"/>
</svg>
