<svg width="275" height="92" viewBox="0 0 275 92" fill="none" xmlns="http://www.w3.org/2000/svg">
<path d="M125.664 74L122.528 64.976H103.456L100.32 74H92.32L108.576 29.2H117.408L133.6 74H125.664ZM105.888 58.064H120.096L112.992 37.84L105.888 58.064ZM152.261 74.832C147.44 74.832 143.408 73.2107 140.165 69.968C136.965 66.7253 135.365 62.736 135.365 58C135.365 53.2213 136.965 49.232 140.165 46.032C143.408 42.7893 147.44 41.168 152.261 41.168C155.376 41.168 158.213 41.9147 160.773 43.408C163.333 44.9013 165.253 46.9067 166.533 49.424L160.581 52.88C159.856 51.344 158.746 50.1493 157.253 49.296C155.802 48.4 154.117 47.952 152.197 47.952C149.381 47.952 147.013 48.912 145.093 50.832C143.216 52.752 142.277 55.1413 142.277 58C142.277 60.8587 143.216 63.248 145.093 65.168C147.013 67.088 149.381 68.048 152.197 68.048C154.074 68.048 155.76 67.6 157.253 66.704C158.789 65.808 159.941 64.6133 160.709 63.12L166.661 66.512C165.296 69.072 163.333 71.0987 160.773 72.592C158.213 74.0853 155.376 74.832 152.261 74.832ZM193.541 42H201.093L188.613 74H180.613L168.133 42H175.685L184.645 66.32L193.541 42ZM209.66 60.944C210.172 63.376 211.345 65.2533 213.18 66.576C215.014 67.856 217.254 68.496 219.9 68.496C223.569 68.496 226.321 67.1733 228.156 64.528L233.852 67.856C230.694 72.5067 226.022 74.832 219.836 74.832C214.63 74.832 210.428 73.2533 207.228 70.096C204.028 66.896 202.428 62.864 202.428 58C202.428 53.2213 204.006 49.232 207.164 46.032C210.321 42.7893 214.374 41.168 219.324 41.168C224.017 41.168 227.857 42.8107 230.844 46.096C233.873 49.3813 235.388 53.3707 235.388 58.064C235.388 58.7893 235.302 59.7493 235.132 60.944H209.66ZM209.595 55.312H228.412C227.942 52.7093 226.854 50.7467 225.148 49.424C223.484 48.1013 221.521 47.44 219.26 47.44C216.7 47.44 214.566 48.144 212.86 49.552C211.153 50.96 210.065 52.88 209.595 55.312ZM246.722 60.944C247.234 63.376 248.407 65.2533 250.242 66.576C252.077 67.856 254.317 68.496 256.962 68.496C260.631 68.496 263.383 67.1733 265.218 64.528L270.914 67.856C267.757 72.5067 263.085 74.832 256.898 74.832C251.693 74.832 247.49 73.2533 244.29 70.096C241.09 66.896 239.49 62.864 239.49 58C239.49 53.2213 241.069 49.232 244.226 46.032C247.383 42.7893 251.437 41.168 256.386 41.168C261.079 41.168 264.919 42.8107 267.906 46.096C270.935 49.3813 272.45 53.3707 272.45 58.064C272.45 58.7893 272.365 59.7493 272.194 60.944H246.722ZM246.658 55.312H265.474C265.005 52.7093 263.917 50.7467 262.21 49.424C260.546 48.1013 258.583 47.44 256.322 47.44C253.762 47.44 251.629 48.144 249.922 49.552C248.215 50.96 247.127 52.88 246.658 55.312Z" fill="#2684FF"/>
<path d="M32.5491 43.4621V43.4618C32.3917 43.2784 32.1926 43.1354 31.9684 43.045C31.7442 42.9547 31.5016 42.9195 31.261 42.9425C31.0579 42.9796 30.8673 43.0667 30.7063 43.1959C30.5453 43.3251 30.4191 43.4924 30.339 43.6827L15.1411 74.0615C15.0394 74.2645 14.9912 74.4901 15.0013 74.7169C15.0114 74.9438 15.0793 75.1642 15.1986 75.3574C15.3179 75.5506 15.4846 75.7101 15.6829 75.8207C15.8812 75.9313 16.1044 75.9893 16.3315 75.9893H37.493C37.7408 75.9943 37.9848 75.9272 38.1952 75.7962C38.4056 75.6652 38.5735 75.4759 38.6785 75.2513C43.1245 66.0769 40.3731 51.8202 32.5491 43.4621Z" fill="url(#paint0_linear_503_62)"/>
<path d="M75.8898 74.0726C75.6049 73.5022 47.4155 17.0982 46.7223 15.6957C46.6316 15.4992 46.4895 15.3309 46.311 15.2086C46.1325 15.0863 45.9242 15.0145 45.7082 15.0009L45.6603 15C45.4134 15.0127 45.1738 15.0881 44.9641 15.2191C44.7544 15.3501 44.5815 15.5323 44.4618 15.7486L44.4605 15.7499C36.8192 27.8548 35.9534 42.4702 42.1451 54.8464L52.3461 75.2473C52.4541 75.4725 52.6235 75.6627 52.8348 75.7958C53.046 75.929 53.2907 75.9998 53.5404 76H74.6988C74.9258 76.0002 75.1492 75.9423 75.3476 75.8318C75.546 75.7213 75.7128 75.5619 75.8322 75.3687C75.9516 75.1755 76.0195 74.955 76.0296 74.7281C76.0397 74.5012 75.9916 74.2756 75.8898 74.0726Z" fill="url(#paint1_linear_503_62)"/>
<defs>
<linearGradient id="paint0_linear_503_62" x1="40.9897" y1="48.2424" x2="22.7212" y2="79.8845" gradientUnits="userSpaceOnUse">
<stop stop-color="#075BD5"/>
<stop offset="0.92" stop-color="#2684FF"/>
</linearGradient>
<linearGradient id="paint1_linear_503_62" x1="57.0389" y1="15" x2="57.0389" y2="76" gradientUnits="userSpaceOnUse">
<stop stop-color="#2684FF"/>
<stop offset="1" stop-color="#2684FF"/>
</linearGradient>
</defs>
</svg>
